<?xml version="1.0" encoding="UTF-8" standalone="no"?>
<svg
   width="603px"
   height="512px"
   viewBox="0 0 603 512"
   version="1.1"
   id="svg2921326"
   xmlns:xlink="http://www.w3.org/1999/xlink"
   xmlns="http://www.w3.org/2000/svg"
   xmlns:svg="http://www.w3.org/2000/svg">
  <title
     id="title2921217">ml-workflow</title>
  <defs
     id="defs2921269">
    <rect
       id="path-1"
       x="215"
       y="93"
       width="172"
       height="60"
       rx="8" />
    <filter
       x="-0.027906977"
       y="-0.08"
       width="1.055814"
       height="1.1766667"
       filterUnits="objectBoundingBox"
       id="filter-2">
      <feOffset
         dx="0"
         dy="1"
         in="SourceAlpha"
         result="shadowOffsetOuter1"
         id="feOffset2921220" />
      <feGaussianBlur
         stdDeviation="2"
         in="shadowOffsetOuter1"
         result="shadowBlurOuter1"
         id="feGaussianBlur2921222" />
      <feComposite
         in="shadowBlurOuter1"
         in2="SourceAlpha"
         operator="out"
         result="shadowBlurOuter1"
         id="feComposite2921224" />
      <feColorMatrix
         values="0 0 0 0 0   0 0 0 0 0   0 0 0 0 0  0 0 0 0.5 0"
         type="matrix"
         in="shadowBlurOuter1"
         id="feColorMatrix2921226" />
    </filter>
    <rect
       id="path-3"
       x="403"
       y="224"
       width="158"
       height="60"
       rx="8" />
    <filter
       x="-0.030379747"
       y="-0.08"
       width="1.0607595"
       height="1.1766667"
       filterUnits="objectBoundingBox"
       id="filter-4">
      <feOffset
         dx="0"
         dy="1"
         in="SourceAlpha"
         result="shadowOffsetOuter1"
         id="feOffset2921230" />
      <feGaussianBlur
         stdDeviation="2"
         in="shadowOffsetOuter1"
         result="shadowBlurOuter1"
         id="feGaussianBlur2921232" />
      <feComposite
         in="shadowBlurOuter1"
         in2="SourceAlpha"
         operator="out"
         result="shadowBlurOuter1"
         id="feComposite2921234" />
      <feColorMatrix
         values="0 0 0 0 0   0 0 0 0 0   0 0 0 0 0  0 0 0 0.5 0"
         type="matrix"
         in="shadowBlurOuter1"
         id="feColorMatrix2921236" />
    </filter>
    <rect
       id="path-5"
       x="362.266667"
       y="396"
       width="172"
       height="79"
       rx="8" />
    <filter
       x="-0.027906977"
       y="-0.060759494"
       width="1.055814"
       height="1.1341772"
       filterUnits="objectBoundingBox"
       id="filter-6">
      <feOffset
         dx="0"
         dy="1"
         in="SourceAlpha"
         result="shadowOffsetOuter1"
         id="feOffset2921240" />
      <feGaussianBlur
         stdDeviation="2"
         in="shadowOffsetOuter1"
         result="shadowBlurOuter1"
         id="feGaussianBlur2921242" />
      <feComposite
         in="shadowBlurOuter1"
         in2="SourceAlpha"
         operator="out"
         result="shadowBlurOuter1"
         id="feComposite2921244" />
      <feColorMatrix
         values="0 0 0 0 0   0 0 0 0 0   0 0 0 0 0  0 0 0 0.5 0"
         type="matrix"
         in="shadowBlurOuter1"
         id="feColorMatrix2921246" />
    </filter>
    <rect
       id="path-7"
       x="59"
       y="395"
       width="172"
       height="79"
       rx="8" />
    <filter
       x="-0.027906977"
       y="-0.060759494"
       width="1.055814"
       height="1.1341772"
       filterUnits="objectBoundingBox"
       id="filter-8">
      <feOffset
         dx="0"
         dy="1"
         in="SourceAlpha"
         result="shadowOffsetOuter1"
         id="feOffset2921250" />
      <feGaussianBlur
         stdDeviation="2"
         in="shadowOffsetOuter1"
         result="shadowBlurOuter1"
         id="feGaussianBlur2921252" />
      <feComposite
         in="shadowBlurOuter1"
         in2="SourceAlpha"
         operator="out"
         result="shadowBlurOuter1"
         id="feComposite2921254" />
      <feColorMatrix
         values="0 0 0 0 0   0 0 0 0 0   0 0 0 0 0  0 0 0 0.5 0"
         type="matrix"
         in="shadowBlurOuter1"
         id="feColorMatrix2921256" />
    </filter>
    <rect
       id="path-9"
       x="33"
       y="226"
       width="179"
       height="60"
       rx="8" />
    <filter
       x="-0.026815642"
       y="-0.08"
       width="1.0536313"
       height="1.1766667"
       filterUnits="objectBoundingBox"
       id="filter-10">
      <feOffset
         dx="0"
         dy="1"
         in="SourceAlpha"
         result="shadowOffsetOuter1"
         id="feOffset2921260" />
      <feGaussianBlur
         stdDeviation="2"
         in="shadowOffsetOuter1"
         result="shadowBlurOuter1"
         id="feGaussianBlur2921262" />
      <feComposite
         in="shadowBlurOuter1"
         in2="SourceAlpha"
         operator="out"
         result="shadowBlurOuter1"
         id="feComposite2921264" />
      <feColorMatrix
         values="0 0 0 0 0   0 0 0 0 0   0 0 0 0 0  0 0 0 0.5 0"
         type="matrix"
         in="shadowBlurOuter1"
         id="feColorMatrix2921266" />
    </filter>
  </defs>
  <g
     id="ml-workflow"
     stroke="none"
     stroke-width="1"
     fill="none"
     fill-rule="evenodd">
    <path
       id="rect2921271"
       style="fill:#ffffff"
       d="M 0,0 H 603 V 512 H 0 Z" />
    <g
       aria-label="Machine learning workflow"
       id="Machine-learning-wor"
       style="font-weight:bold;font-size:32px;font-family:Roboto-Bold, Roboto;fill:#000000">
      <path
         d="m 134,47.75 5.82812,-16.5 h 6.14063 V 54 h -4.70313 V 47.78125 L 141.73437,37.09375 135.60937,54 h -3.21875 l -6.12499,-16.90625 0.46875,10.6875 V 54 h -4.70313 V 31.25 h 6.14062 z"
         id="path2921331" />
      <path
         d="m 159.5625,54 q -0.28125,-0.59375 -0.45313,-1.515625 -1.64062,1.828125 -4.26562,1.828125 -2.42188,0 -4.07813,-1.421875 -1.65625,-1.4375 -1.65625,-3.640625 0,-2.65625 1.96875,-4.109375 1.96875,-1.46875 5.82813,-1.46875 h 2.01562 V 42.6875 q 0,-1.171875 -0.60937,-1.859375 Q 157.71875,40.125 156.42187,40.125 154,40.125 154,42.15625 h -4.51563 q 0,-2.203125 1.95313,-3.78125 1.95312,-1.59375 5.23437,-1.59375 2.92188,0 4.84375,1.484375 1.9375,1.484375 1.9375,4.453125 V 50.25 q 0.0312,2.25 0.67188,3.484375 V 54 Z m -3.73438,-3.140625 q 1.14063,0 1.9375,-0.5 0.8125,-0.515625 1.15625,-1.125 v -2.9375 h -1.84375 q -1.79687,0 -2.625,0.765625 -0.82812,0.75 -0.82812,1.859375 0,0.84375 0.57812,1.390625 0.59375,0.546875 1.625,0.546875 z"
         id="path2921333" />
      <path
         d="m 173.95312,50.671875 q 1.23438,0 2.03125,-0.671875 0.79688,-0.6875 0.8125,-1.84375 h 4.25 q -0.0312,2.6875 -2.0625,4.421875 -2.01562,1.734375 -4.95312,1.734375 -3.92188,0 -5.875,-2.46875 -1.9375,-2.484375 -1.9375,-6.078125 v -0.4375 q 0,-3.578125 1.9375,-6.0625 1.9375,-2.484375 5.85937,-2.484375 3.10938,0 5.04688,1.78125 1.95312,1.78125 1.98437,4.828125 h -4.25 q -0.0156,-1.234375 -0.75,-2.09375 -0.73437,-0.875 -2.10937,-0.875 -1.96875,0 -2.57813,1.484375 -0.60937,1.46875 -0.60937,3.859375 0,1.953125 0.59375,3.4375 0.60937,1.46875 2.60937,1.46875 z"
         id="path2921335" />
      <path
         d="m 190.90625,40.4375 q -1.96875,0 -2.85938,1.515625 V 54 h -4.51562 V 30 h 4.51562 v 8.921875 q 1.76563,-2.140625 4.51563,-2.140625 2.48437,0 4.01562,1.46875 1.54688,1.46875 1.5625,5.015625 V 54 h -4.53125 V 43.3125 q 0,-1.640625 -0.70312,-2.25 -0.70313,-0.625 -2,-0.625 z"
         id="path2921337" />
      <path
         d="m 201.51562,32.71875 q 0,-1.015625 0.6875,-1.671875 0.6875,-0.671875 1.84375,-0.671875 1.15625,0 1.84375,0.671875 0.6875,0.65625 0.6875,1.671875 0,1 -0.6875,1.671875 -0.6875,0.65625 -1.84375,0.65625 -1.15625,0 -1.84375,-0.65625 -0.6875,-0.671875 -0.6875,-1.671875 z m 4.8125,4.375 V 54 h -4.53125 V 37.09375 Z"
         id="path2921339" />
      <path
         d="m 217.32812,40.4375 q -1.92187,0 -2.85937,1.625 V 54 h -4.51563 V 37.09375 h 4.23438 l 0.15625,1.9375 q 1.8125,-2.25 4.85937,-2.25 2.39063,0 3.85938,1.421875 1.46875,1.421875 1.48437,4.953125 V 54 h -4.53125 V 43.21875 q 0,-1.625 -0.70312,-2.203125 Q 218.625,40.4375 217.32812,40.4375 Z"
         id="path2921341" />
      <path
         d="m 242.34375,51.25 q -0.8125,1.15625 -2.46875,2.109375 -1.65625,0.953125 -4.125,0.953125 -3.9375,0 -6.15625,-2.375 -2.21875,-2.390625 -2.23438,-5.765625 v -0.65625 q 0,-3.828125 2.125,-6.28125 2.14063,-2.453125 5.76563,-2.453125 3.64062,0 5.54687,2.28125 1.90625,2.28125 1.90625,6.03125 v 1.921875 H 231.9375 q 0.23437,1.640625 1.29687,2.65625 1.0625,1 2.79688,1 2.57812,0 4.07812,-1.890625 z m -7.125,-10.828125 q -1.4375,0 -2.21875,0.96875 -0.78125,0.96875 -1.01563,2.53125 h 6.28125 v -0.34375 q -0.0312,-1.359375 -0.76562,-2.25 -0.71875,-0.90625 -2.28125,-0.90625 z"
         id="path2921343" />
      <path
         d="m 258,30 v 24 h -4.53125 V 30 Z"
         id="path2921345" />
      <path
         d="m 276.09375,51.25 q -0.8125,1.15625 -2.46875,2.109375 -1.65625,0.953125 -4.125,0.953125 -3.9375,0 -6.15625,-2.375 -2.21875,-2.390625 -2.23438,-5.765625 v -0.65625 q 0,-3.828125 2.125,-6.28125 Q 265.375,36.78125 269,36.78125 q 3.64062,0 5.54687,2.28125 1.90625,2.28125 1.90625,6.03125 v 1.921875 H 265.6875 q 0.23437,1.640625 1.29687,2.65625 1.0625,1 2.79688,1 2.57812,0 4.07812,-1.890625 z m -7.125,-10.828125 q -1.4375,0 -2.21875,0.96875 -0.78125,0.96875 -1.01563,2.53125 h 6.28125 v -0.34375 q -0.0312,-1.359375 -0.76562,-2.25 -0.71875,-0.90625 -2.28125,-0.90625 z"
         id="path2921347" />
      <path
         d="m 288.79687,54 q -0.28125,-0.59375 -0.45312,-1.515625 -1.64063,1.828125 -4.26563,1.828125 -2.42187,0 -4.07812,-1.421875 -1.65625,-1.4375 -1.65625,-3.640625 0,-2.65625 1.96875,-4.109375 1.96875,-1.46875 5.82812,-1.46875 h 2.01563 V 42.6875 q 0,-1.171875 -0.60938,-1.859375 -0.59375,-0.703125 -1.89062,-0.703125 -2.42188,0 -2.42188,2.03125 h -4.51562 q 0,-2.203125 1.95312,-3.78125 1.95313,-1.59375 5.23438,-1.59375 2.92187,0 4.84375,1.484375 1.9375,1.484375 1.9375,4.453125 V 50.25 q 0.0312,2.25 0.67187,3.484375 V 54 Z m -3.73437,-3.140625 q 1.14062,0 1.9375,-0.5 0.8125,-0.515625 1.15625,-1.125 v -2.9375 h -1.84375 q -1.79688,0 -2.625,0.765625 -0.82813,0.75 -0.82813,1.859375 0,0.84375 0.57813,1.390625 0.59375,0.546875 1.625,0.546875 z"
         id="path2921349" />
      <path
         d="m 304.03125,41.1875 q -2.54688,0 -3.34375,1.734375 V 54 h -4.53125 V 37.09375 h 4.26562 l 0.14063,2.015625 q 1.32812,-2.328125 3.76562,-2.328125 0.85938,0 1.39063,0.203125 l -0.0469,4.328125 z"
         id="path2921351" />
      <path
         d="m 315.14062,40.4375 q -1.92187,0 -2.85937,1.625 V 54 h -4.51563 V 37.09375 H 312 l 0.15625,1.9375 q 1.8125,-2.25 4.85937,-2.25 2.39063,0 3.85938,1.421875 1.46875,1.421875 1.48437,4.953125 V 54 h -4.53125 V 43.21875 q 0,-1.625 -0.70312,-2.203125 -0.6875,-0.578125 -1.98438,-0.578125 z"
         id="path2921353" />
      <path
         d="m 325.73437,32.71875 q 0,-1.015625 0.6875,-1.671875 0.6875,-0.671875 1.84375,-0.671875 1.15625,0 1.84375,0.671875 0.6875,0.65625 0.6875,1.671875 0,1 -0.6875,1.671875 -0.6875,0.65625 -1.84375,0.65625 -1.15625,0 -1.84375,-0.65625 -0.6875,-0.671875 -0.6875,-1.671875 z m 4.8125,4.375 V 54 h -4.53125 V 37.09375 Z"
         id="path2921355" />
      <path
         d="m 341.54687,40.4375 q -1.92187,0 -2.85937,1.625 V 54 h -4.51563 V 37.09375 h 4.23438 l 0.15625,1.9375 q 1.8125,-2.25 4.85937,-2.25 2.39063,0 3.85938,1.421875 1.46875,1.421875 1.48437,4.953125 V 54 h -4.53125 V 43.21875 q 0,-1.625 -0.70312,-2.203125 -0.6875,-0.578125 -1.98438,-0.578125 z"
         id="path2921357" />
      <path
         d="m 358.84375,60.65625 q -1.53125,0 -3.375,-0.640625 -1.82813,-0.640625 -2.92188,-2 l 2,-2.75 q 1.67188,1.875 4.10938,1.875 1.79687,0 2.79687,-0.96875 1,-0.953125 1,-2.734375 v -0.90625 q -1.59375,1.78125 -4.10937,1.78125 -3.14063,0 -4.96875,-2.40625 Q 351.54687,49.5 351.51562,45.875 v -0.453125 q 0,-3.859375 1.82813,-6.25 1.84375,-2.390625 5.03125,-2.390625 2.79687,0 4.34375,1.90625 l 0.17187,-1.59375 h 4.09375 v 16.328125 q 0,3.484375 -2.26562,5.359375 -2.25,1.875 -5.875,1.875 z M 356.03125,45.75 q 0,2.03125 0.82812,3.46875 0.84375,1.421875 2.625,1.421875 2.0625,0 2.96875,-1.5625 v -7.09375 q -0.89062,-1.546875 -2.9375,-1.546875 -1.76562,0 -2.625,1.453125 -0.85937,1.4375 -0.85937,3.53125 z"
         id="path2921359" />
      <path
         d="M 399.70312,37.09375 395.40625,54 H 391.625 L 388.40625,43.359375 385.20312,54 H 381.4375 L 377.125,37.09375 h 4.35937 l 2.23438,10.75 3.0625,-10.75 h 3.26562 l 3.09375,10.734375 2.20313,-10.734375 z"
         id="path2921361" />
      <path
         d="m 401.23437,45.390625 q 0,-3.6875 2.09375,-6.140625 2.09375,-2.46875 5.90625,-2.46875 3.85938,0 5.9375,2.46875 2.07813,2.453125 2.07813,6.140625 v 0.328125 q 0,3.6875 -2.07813,6.140625 -2.07812,2.453125 -5.90625,2.453125 -3.79687,0 -5.89062,-2.390625 -2.07813,-2.390625 -2.14063,-6 z m 4.53125,0.328125 q 0,2.0625 0.78125,3.515625 0.79688,1.4375 2.71875,1.4375 1.89063,0 2.67188,-1.4375 0.79687,-1.4375 0.79687,-3.84375 0,-2.015625 -0.79687,-3.484375 -0.78125,-1.484375 -2.70313,-1.484375 -1.90625,0 -2.6875,1.46875 -0.78125,1.46875 -0.78125,3.828125 z"
         id="path2921363" />
      <path
         d="m 427.90625,41.1875 q -2.54688,0 -3.34375,1.734375 V 54 h -4.53125 V 37.09375 h 4.26562 l 0.14063,2.015625 q 1.32812,-2.328125 3.76562,-2.328125 0.85938,0 1.39063,0.203125 l -0.0469,4.328125 z"
         id="path2921365" />
      <path
         d="M 442.20312,54 437.85937,47.21875 436.25,48.828125 V 54 h -4.51563 V 29.984375 H 436.25 V 43.28125 l 0.875,-1.125 4.3125,-5.0625 h 5.42187 L 440.76562,44.125 447.40625,54 Z"
         id="path2921367" />
      <path
         d="m 457.9375,40.390625 h -3.35938 V 54 h -4.53125 V 40.390625 h -2.51562 V 37.09375 h 2.51562 v -1.390625 q 0.0469,-2.9375 1.875,-4.484375 1.84375,-1.546875 5.10938,-1.546875 1.35937,0 3.67187,0.171875 2.3125,0.15625 3.98438,0.328125 V 54 h -4.53125 V 33.5 q -1.39063,-0.15625 -2.51563,-0.15625 -3.03125,0 -3.0625,2.453125 v 1.296875 h 3.35938 z"
         id="path2921369" />
      <path
         d="m 467.71875,45.390625 q 0,-3.6875 2.09375,-6.140625 2.09375,-2.46875 5.90625,-2.46875 3.85937,0 5.9375,2.46875 2.07812,2.453125 2.07812,6.140625 v 0.328125 q 0,3.6875 -2.07812,6.140625 -2.07813,2.453125 -5.90625,2.453125 -3.79688,0 -5.89063,-2.390625 -2.07812,-2.390625 -2.14062,-6 z M 472.25,45.71875 q 0,2.0625 0.78125,3.515625 0.79687,1.4375 2.71875,1.4375 1.89062,0 2.67187,-1.4375 0.79688,-1.4375 0.79688,-3.84375 0,-2.015625 -0.79688,-3.484375 -0.78125,-1.484375 -2.70312,-1.484375 -1.90625,0 -2.6875,1.46875 -0.78125,1.46875 -0.78125,3.828125 z"
         id="path2921371" />
      <path
         d="M 507.79687,37.09375 503.5,54 h -3.78125 L 496.5,43.359375 493.29687,54 h -3.76562 l -4.3125,-16.90625 h 4.35937 l 2.23438,10.75 3.0625,-10.75 h 3.26562 l 3.09375,10.734375 2.20313,-10.734375 z"
         id="path2921373" />
    </g>
    <g
       id="Rectangle">
      <use
         fill="#000000"
         fill-opacity="1"
         filter="url(#filter-2)"
         xlink:href="#path-1"
         id="use2921276" />
      <path
         id="rect2921278"
         style="fill:#e8f0fe;stroke:#e8f0fe;stroke-width:2"
         d="m 224,94 h 154 c 4.432,0 8,3.568 8,8 v 42 c 0,4.432 -3.568,8 -8,8 H 224 c -4.432,0 -8,-3.568 -8,-8 v -42 c 0,-4.432 3.568,-8 8,-8 z" />
    </g>
    <g
       id="Rectangle-Copy">
      <use
         fill="#000000"
         fill-opacity="1"
         filter="url(#filter-4)"
         xlink:href="#path-3"
         id="use2921281" />
      <path
         id="rect2921283"
         style="fill:#e8f0fe;stroke:#e8f0fe;stroke-width:2"
         d="m 412,225 h 140 c 4.432,0 8,3.568 8,8 v 42 c 0,4.432 -3.568,8 -8,8 H 412 c -4.432,0 -8,-3.568 -8,-8 v -42 c 0,-4.432 3.568,-8 8,-8 z" />
    </g>
    <g
       id="Rectangle-Copy-5">
      <use
         fill="#000000"
         fill-opacity="1"
         filter="url(#filter-6)"
         xlink:href="#path-5"
         id="use2921286" />
      <path
         id="rect2921288"
         style="fill:#e8f0fe;stroke:#e8f0fe;stroke-width:2"
         d="m 371.26666,397 h 154 c 4.432,0 8,3.568 8,8 v 61 c 0,4.432 -3.568,8 -8,8 h -154 c -4.432,0 -8,-3.568 -8,-8 v -61 c 0,-4.432 3.568,-8 8,-8 z" />
    </g>
    <g
       id="Rectangle-Copy-6">
      <use
         fill="#000000"
         fill-opacity="1"
         filter="url(#filter-8)"
         xlink:href="#path-7"
         id="use2921291" />
      <path
         id="rect2921293"
         style="fill:#e8f0fe;stroke:#e8f0fe;stroke-width:2"
         d="m 68,396 h 154 c 4.432,0 8,3.568 8,8 v 61 c 0,4.432 -3.568,8 -8,8 H 68 c -4.432,0 -8,-3.568 -8,-8 v -61 c 0,-4.432 3.568,-8 8,-8 z" />
    </g>
    <g
       id="Rectangle-Copy-7">
      <use
         fill="#000000"
         fill-opacity="1"
         filter="url(#filter-10)"
         xlink:href="#path-9"
         id="use2921296" />
      <path
         id="rect2921298"
         style="fill:#e8f0fe;stroke:#e8f0fe;stroke-width:2"
         d="m 42,227 h 161 c 4.432,0 8,3.568 8,8 v 42 c 0,4.432 -3.568,8 -8,8 H 42 c -4.432,0 -8,-3.568 -8,-8 v -42 c 0,-4.432 3.568,-8 8,-8 z" />
    </g>
    <g
       aria-label="Data preparation"
       id="Data-preparation"
       style="font-weight:bold;font-size:18px;font-family:Roboto-Bold, Roboto;fill:#000000">
      <path
         d="m 234.14258,128 v -12.79687 h 3.94629 q 2.58398,0 4.20996,1.6875 1.63476,1.6875 1.63476,4.42968 v 0.57129 q 0,2.74219 -1.63476,4.42969 Q 240.67285,128 238.05371,128 Z m 2.64551,-10.66113 v 8.53418 h 1.26562 q 1.55566,0 2.36426,-1.01075 0.81738,-1.01074 0.83496,-2.8916 v -0.66797 q 0,-1.95117 -0.77344,-2.94433 -0.76465,-0.99317 -2.31152,-1.01953 z"
         id="path2921381" />
      <path
         d="m 251.19336,128 q -0.1582,-0.33398 -0.25488,-0.85254 -0.92286,1.02832 -2.39942,1.02832 -1.3623,0 -2.29394,-0.7998 -0.93164,-0.8086 -0.93164,-2.04785 0,-1.49415 1.10742,-2.31153 1.10742,-0.82617 3.27832,-0.82617 h 1.13379 v -0.55371 q 0,-0.65918 -0.34278,-1.0459 -0.33398,-0.39551 -1.06347,-0.39551 -1.36231,0 -1.36231,1.14258 h -2.54004 q 0,-1.23926 1.09864,-2.12695 1.09863,-0.89649 2.94433,-0.89649 1.64356,0 2.72461,0.83496 1.08985,0.83497 1.08985,2.50489 v 4.23633 q 0.0176,1.26562 0.37793,1.95996 V 128 Z m -2.10059,-1.7666 q 0.6416,0 1.08985,-0.28125 0.45703,-0.29004 0.65039,-0.63281 v -1.65235 h -1.03711 q -1.01074,0 -1.47656,0.43067 -0.46582,0.42187 -0.46582,1.04589 0,0.47461 0.32519,0.78223 0.33399,0.30762 0.91406,0.30762 z"
         id="path2921383" />
      <path
         d="m 260.09668,127.93848 q -0.71191,0.2373 -1.5293,0.2373 -1.24804,0 -1.98633,-0.65039 -0.73828,-0.65039 -0.73828,-2.16211 v -5.01855 h -1.39746 v -1.8545 h 1.39746 v -2.34668 h 2.54004 v 2.34668 H 260 v 1.8545 h -1.61719 v 4.75488 q 0,0.59766 0.2461,0.79102 0.24609,0.19335 0.72949,0.19335 0.38672,0 0.73828,-0.0703 z"
         id="path2921385" />
      <path
         d="m 266.92578,128 q -0.1582,-0.33398 -0.25488,-0.85254 -0.92285,1.02832 -2.39942,1.02832 -1.3623,0 -2.29394,-0.7998 -0.93164,-0.8086 -0.93164,-2.04785 0,-1.49415 1.10742,-2.31153 1.10742,-0.82617 3.27832,-0.82617 h 1.13379 v -0.55371 q 0,-0.65918 -0.34277,-1.0459 -0.33399,-0.39551 -1.06348,-0.39551 -1.36231,0 -1.36231,1.14258 h -2.54003 q 0,-1.23926 1.09863,-2.12695 1.09863,-0.89649 2.94433,-0.89649 1.64356,0 2.72461,0.83496 1.08985,0.83497 1.08985,2.50489 v 4.23633 q 0.0176,1.26562 0.37793,1.95996 V 128 Z m -2.10058,-1.7666 q 0.6416,0 1.08984,-0.28125 0.45703,-0.29004 0.65039,-0.63281 v -1.65235 h -1.03711 q -1.01074,0 -1.47656,0.43067 -0.46582,0.42187 -0.46582,1.04589 0,0.47461 0.32519,0.78223 0.33399,0.30762 0.91407,0.30762 z"
         id="path2921387" />
      <path
         d="m 280.42578,128.17578 q -1.42383,0 -2.3291,-1.01074 v 4.49121 h -2.54883 v -13.16602 h 2.36426 l 0.0967,0.92286 q 0.90527,-1.09864 2.39062,-1.09864 1.81055,0 2.75977,1.32715 0.95801,1.32715 0.95801,3.49805 v 0.18457 q 0,2.07422 -0.95801,3.46289 -0.94922,1.38867 -2.7334,1.38867 z m -0.68555,-7.80469 q -1.18652,0 -1.64355,0.92286 v 3.89355 q 0.47461,0.94043 1.66113,0.94043 0.99317,0 1.40625,-0.81738 0.41309,-0.82617 0.41309,-2.1709 0,-1.17774 -0.43067,-1.96875 -0.42187,-0.79981 -1.40625,-0.79981 z"
         id="path2921389" />
      <path
         d="m 290.11133,120.79297 q -1.43262,0 -1.88086,0.97558 V 128 h -2.54883 v -9.50977 h 2.39941 l 0.0791,1.13379 q 0.74707,-1.30957 2.11816,-1.30957 0.4834,0 0.78223,0.11426 l -0.0264,2.43457 z"
         id="path2921391" />
      <path
         d="m 300.18359,126.45313 q -0.45703,0.65039 -1.38867,1.18652 -0.93164,0.53613 -2.32031,0.53613 -2.21484,0 -3.46289,-1.33594 -1.24805,-1.34472 -1.25684,-3.24316 v -0.36914 q 0,-2.15332 1.19532,-3.5332 1.2041,-1.37989 3.24316,-1.37989 2.04785,0 3.12012,1.28321 1.07226,1.2832 1.07226,3.39257 v 1.08106 h -6.05566 q 0.13183,0.92285 0.72949,1.49414 0.59766,0.5625 1.57324,0.5625 1.4502,0 2.29395,-1.06348 z m -4.00781,-6.09083 q -0.80859,0 -1.24805,0.54493 -0.43945,0.54492 -0.57128,1.42382 h 3.5332 v -0.19335 q -0.0176,-0.76465 -0.43067,-1.26563 -0.40429,-0.50977 -1.2832,-0.50977 z"
         id="path2921393" />
      <path
         d="m 306.69629,128.17578 q -1.42383,0 -2.3291,-1.01074 v 4.49121 h -2.54883 v -13.16602 h 2.36426 l 0.0967,0.92286 q 0.90527,-1.09864 2.39062,-1.09864 1.81055,0 2.75977,1.32715 0.95801,1.32715 0.95801,3.49805 v 0.18457 q 0,2.07422 -0.95801,3.46289 -0.94922,1.38867 -2.7334,1.38867 z m -0.68555,-7.80469 q -1.18652,0 -1.64355,0.92286 v 3.89355 q 0.47461,0.94043 1.66113,0.94043 0.99316,0 1.40625,-0.81738 0.41309,-0.82617 0.41309,-2.1709 0,-1.17774 -0.43067,-1.96875 -0.42187,-0.79981 -1.40625,-0.79981 z"
         id="path2921395" />
      <path
         d="m 317.46289,128 q -0.1582,-0.33398 -0.25488,-0.85254 -0.92285,1.02832 -2.39942,1.02832 -1.3623,0 -2.29394,-0.7998 -0.93164,-0.8086 -0.93164,-2.04785 0,-1.49415 1.10742,-2.31153 1.10742,-0.82617 3.27832,-0.82617 h 1.13379 v -0.55371 q 0,-0.65918 -0.34277,-1.0459 -0.33399,-0.39551 -1.06348,-0.39551 -1.36231,0 -1.36231,1.14258 h -2.54003 q 0,-1.23926 1.09863,-2.12695 1.09863,-0.89649 2.94433,-0.89649 1.64356,0 2.72461,0.83496 1.08985,0.83497 1.08985,2.50489 v 4.23633 q 0.0176,1.26562 0.37793,1.95996 V 128 Z m -2.10059,-1.7666 q 0.64161,0 1.08985,-0.28125 0.45703,-0.29004 0.65039,-0.63281 v -1.65235 h -1.03711 q -1.01074,0 -1.47656,0.43067 -0.46582,0.42187 -0.46582,1.04589 0,0.47461 0.32519,0.78223 0.33399,0.30762 0.91406,0.30762 z"
         id="path2921397" />
      <path
         d="m 326.03223,120.79297 q -1.43262,0 -1.88086,0.97558 V 128 h -2.54883 v -9.50977 h 2.39941 l 0.0791,1.13379 q 0.74707,-1.30957 2.11817,-1.30957 0.4834,0 0.78223,0.11426 l -0.0264,2.43457 z"
         id="path2921399" />
      <path
         d="m 333.42383,128 q -0.15821,-0.33398 -0.25488,-0.85254 -0.92286,1.02832 -2.39942,1.02832 -1.3623,0 -2.29394,-0.7998 -0.93164,-0.8086 -0.93164,-2.04785 0,-1.49415 1.10742,-2.31153 1.10742,-0.82617 3.27832,-0.82617 h 1.13379 v -0.55371 q 0,-0.65918 -0.34278,-1.0459 -0.33398,-0.39551 -1.06347,-0.39551 -1.36231,0 -1.36231,1.14258 h -2.54004 q 0,-1.23926 1.09864,-2.12695 1.09863,-0.89649 2.94433,-0.89649 1.64356,0 2.72461,0.83496 1.08984,0.83497 1.08984,2.50489 v 4.23633 q 0.0176,1.26562 0.37793,1.95996 V 128 Z m -2.10059,-1.7666 q 0.6416,0 1.08985,-0.28125 0.45703,-0.29004 0.65039,-0.63281 v -1.65235 h -1.03711 q -1.01075,0 -1.47657,0.43067 -0.46582,0.42187 -0.46582,1.04589 0,0.47461 0.3252,0.78223 0.33398,0.30762 0.91406,0.30762 z"
         id="path2921401" />
      <path
         d="m 342.32715,127.93848 q -0.71192,0.2373 -1.5293,0.2373 -1.24805,0 -1.98633,-0.65039 -0.73828,-0.65039 -0.73828,-2.16211 v -5.01855 h -1.39746 v -1.8545 h 1.39746 v -2.34668 h 2.54004 v 2.34668 h 1.61719 v 1.8545 h -1.61719 v 4.75488 q 0,0.59766 0.24609,0.79102 0.2461,0.19335 0.7295,0.19335 0.38672,0 0.73828,-0.0703 z"
         id="path2921403" />
      <path
         d="m 343.62793,116.0293 q 0,-0.57129 0.38672,-0.94043 0.38672,-0.37793 1.03711,-0.37793 0.65039,0 1.03711,0.37793 0.38672,0.36914 0.38672,0.94043 0,0.5625 -0.38672,0.94043 -0.38672,0.36914 -1.03711,0.36914 -0.65039,0 -1.03711,-0.36914 -0.38672,-0.37793 -0.38672,-0.94043 z m 2.70703,2.46093 V 128 h -2.54883 v -9.50977 z"
         id="path2921405" />
      <path
         d="m 348.02246,123.15723 q 0,-2.07422 1.17774,-3.4541 1.17773,-1.38868 3.32226,-1.38868 2.1709,0 3.33984,1.38868 1.16895,1.37988 1.16895,3.4541 v 0.18457 q 0,2.07422 -1.16895,3.4541 -1.16894,1.37988 -3.32226,1.37988 -2.13574,0 -3.31348,-1.34473 -1.16894,-1.34472 -1.2041,-3.375 z m 2.54883,0.18457 q 0,1.16015 0.43945,1.97754 0.44824,0.80859 1.5293,0.80859 1.06348,0 1.50293,-0.80859 0.44824,-0.8086 0.44824,-2.16211 0,-1.13379 -0.44824,-1.95996 -0.43945,-0.83497 -1.52051,-0.83497 -1.07226,0 -1.51172,0.82618 -0.43945,0.82617 -0.43945,2.15332 z"
         id="path2921407" />
      <path
         d="m 362.7002,120.37109 q -1.08106,0 -1.6084,0.91407 V 128 h -2.54004 v -9.50977 h 2.38183 l 0.0879,1.08985 q 1.01954,-1.26563 2.7334,-1.26563 1.34473,0 2.1709,0.79981 0.82617,0.7998 0.83496,2.78613 V 128 h -2.54883 v -6.06445 q 0,-0.91407 -0.3955,-1.23926 -0.38672,-0.3252 -1.11621,-0.3252 z"
         id="path2921409" />
    </g>
    <g
       aria-label="Model training"
       id="Model-training"
       style="font-weight:bold;font-size:18px;font-family:Roboto-Bold, Roboto;fill:#000000">
      <path
         d="m 428.875,255.48437 3.27832,-9.28125 h 3.4541 V 259 h -2.64551 v -3.49805 l 0.26368,-6.01172 L 429.78027,259 h -1.81054 l -3.44532,-9.50977 0.26368,6.01172 V 259 h -2.64551 v -12.79688 h 3.4541 z"
         id="path2921412" />
      <path
         d="m 437.34766,254.15723 q 0,-2.07422 1.17773,-3.45411 1.17773,-1.38867 3.32227,-1.38867 2.17089,0 3.33984,1.38867 1.16895,1.37989 1.16895,3.45411 v 0.18457 q 0,2.07422 -1.16895,3.4541 -1.16895,1.37988 -3.32227,1.37988 -2.13574,0 -3.31347,-1.34473 -1.16895,-1.34472 -1.2041,-3.375 z m 2.54882,0.18457 q 0,1.16015 0.43946,1.97754 0.44824,0.80859 1.52929,0.80859 1.06348,0 1.50293,-0.80859 0.44825,-0.8086 0.44825,-2.16211 0,-1.13379 -0.44825,-1.95996 -0.43945,-0.83497 -1.5205,-0.83497 -1.07227,0 -1.51172,0.82618 -0.43946,0.82617 -0.43946,2.15332 z"
         id="path2921414" />
      <path
         d="m 453.80078,259 -0.12305,-1.01074 q -0.94043,1.18652 -2.43457,1.18652 -1.7666,0 -2.74218,-1.37109 -0.97559,-1.3711 -0.97559,-3.44532 v -0.18457 q 0,-2.17089 0.97559,-3.51562 0.97558,-1.34473 2.75976,-1.34473 1.38867,0 2.28516,1.02832 V 245.5 h 2.54883 V 259 Z m -3.72656,-4.64063 q 0,1.14258 0.4043,1.95118 0.40429,0.7998 1.40625,0.7998 1.16015,0 1.66113,-0.98437 v -3.77051 q -0.4834,-0.98438 -1.64356,-0.98438 -0.99316,0 -1.41504,0.8086 -0.41308,0.80859 -0.41308,2.17968 z"
         id="path2921416" />
      <path
         d="m 466.16699,257.45312 q -0.45703,0.6504 -1.38867,1.18653 -0.93164,0.53613 -2.32031,0.53613 -2.21485,0 -3.46289,-1.33594 -1.24805,-1.34472 -1.25684,-3.24316 v -0.36914 q 0,-2.15332 1.19531,-3.5332 1.20411,-1.37989 3.24317,-1.37989 2.04785,0 3.12011,1.28321 1.07227,1.2832 1.07227,3.39257 v 1.08106 h -6.05566 q 0.13183,0.92285 0.72949,1.49414 0.59765,0.5625 1.57324,0.5625 1.4502,0 2.29395,-1.06348 z m -4.00781,-6.09082 q -0.80859,0 -1.24805,0.54493 -0.43945,0.54492 -0.57129,1.42382 h 3.53321 v -0.19335 q -0.0176,-0.76465 -0.43067,-1.26563 -0.40429,-0.50977 -1.2832,-0.50977 z"
         id="path2921418" />
      <path
         d="M 470.49121,245.5 V 259 h -2.54883 v -13.5 z"
         id="path2921420" />
      <path
         d="m 481.82031,258.93848 q -0.71191,0.2373 -1.52929,0.2373 -1.24805,0 -1.98633,-0.65039 -0.73828,-0.65039 -0.73828,-2.16211 v -5.01855 h -1.39746 v -1.8545 h 1.39746 v -2.34668 h 2.54004 v 2.34668 h 1.61718 v 1.8545 h -1.61718 v 4.75488 q 0,0.59766 0.24609,0.79101 0.24609,0.19336 0.72949,0.19336 0.38672,0 0.73828,-0.0703 z"
         id="path2921422" />
      <path
         d="m 487.56836,251.79297 q -1.43262,0 -1.88086,0.97558 V 259 h -2.54883 v -9.50977 h 2.39942 l 0.0791,1.13379 q 0.74707,-1.30957 2.11816,-1.30957 0.4834,0 0.78223,0.11426 l -0.0264,2.43457 z"
         id="path2921424" />
      <path
         d="m 494.95996,259 q -0.1582,-0.33398 -0.25488,-0.85254 -0.92285,1.02832 -2.39942,1.02832 -1.3623,0 -2.29394,-0.7998 -0.93164,-0.8086 -0.93164,-2.04786 0,-1.49414 1.10742,-2.31152 1.10742,-0.82617 3.27832,-0.82617 h 1.13379 v -0.55371 q 0,-0.65918 -0.34277,-1.0459 -0.33399,-0.39551 -1.06348,-0.39551 -1.36231,0 -1.36231,1.14258 h -2.54003 q 0,-1.23926 1.09863,-2.12695 1.09863,-0.89649 2.94433,-0.89649 1.64356,0 2.72461,0.83496 1.08985,0.83496 1.08985,2.50489 v 4.23632 q 0.0176,1.26563 0.37793,1.95997 V 259 Z m -2.10059,-1.7666 q 0.64161,0 1.08985,-0.28125 0.45703,-0.29004 0.65039,-0.63281 v -1.65235 h -1.03711 q -1.01074,0 -1.47656,0.43067 -0.46582,0.42187 -0.46582,1.04589 0,0.47461 0.32519,0.78223 0.33399,0.30762 0.91406,0.30762 z"
         id="path2921426" />
      <path
         d="m 499.08203,247.0293 q 0,-0.57129 0.38672,-0.94043 0.38672,-0.37793 1.03711,-0.37793 0.65039,0 1.03711,0.37793 0.38672,0.36914 0.38672,0.94043 0,0.5625 -0.38672,0.94043 -0.38672,0.36914 -1.03711,0.36914 -0.65039,0 -1.03711,-0.36914 -0.38672,-0.37793 -0.38672,-0.94043 z m 2.70703,2.46093 V 259 h -2.54883 v -9.50977 z"
         id="path2921428" />
      <path
         d="m 507.97656,251.37109 q -1.08105,0 -1.6084,0.91407 V 259 h -2.54004 v -9.50977 h 2.38184 l 0.0879,1.08985 q 1.01953,-1.26563 2.7334,-1.26563 1.34473,0 2.1709,0.79981 0.82617,0.7998 0.83496,2.78613 V 259 h -2.54883 v -6.06445 q 0,-0.91407 -0.39551,-1.23926 -0.38672,-0.3252 -1.11621,-0.3252 z"
         id="path2921430" />
      <path
         d="m 513.93555,247.0293 q 0,-0.57129 0.38672,-0.94043 0.38671,-0.37793 1.0371,-0.37793 0.6504,0 1.03711,0.37793 0.38672,0.36914 0.38672,0.94043 0,0.5625 -0.38672,0.94043 -0.38671,0.36914 -1.03711,0.36914 -0.65039,0 -1.0371,-0.36914 -0.38672,-0.37793 -0.38672,-0.94043 z m 2.70703,2.46093 V 259 h -2.54883 v -9.50977 z"
         id="path2921432" />
      <path
         d="m 522.83008,251.37109 q -1.08106,0 -1.6084,0.91407 V 259 h -2.54004 v -9.50977 h 2.38184 l 0.0879,1.08985 q 1.01953,-1.26563 2.7334,-1.26563 1.34472,0 2.17089,0.79981 0.82618,0.7998 0.83496,2.78613 V 259 h -2.54882 v -6.06445 q 0,-0.91407 -0.39551,-1.23926 -0.38672,-0.3252 -1.11621,-0.3252 z"
         id="path2921434" />
      <path
         d="m 532.55957,262.74414 q -0.86133,0 -1.89844,-0.36035 -1.02832,-0.36035 -1.64355,-1.125 l 1.125,-1.54688 q 0.94043,1.05469 2.31152,1.05469 1.01074,0 1.57324,-0.54492 0.5625,-0.53613 0.5625,-1.53809 v -0.50976 q -0.89648,1.00195 -2.31152,1.00195 -1.7666,0 -2.79492,-1.35351 -1.02832,-1.35352 -1.0459,-3.39258 v -0.25489 q 0,-2.17089 1.02832,-3.51562 1.03711,-1.34473 2.83008,-1.34473 1.57324,0 2.44336,1.07227 l 0.0967,-0.89649 h 2.30273 v 9.18457 q 0,1.95997 -1.27441,3.01465 -1.26563,1.05469 -3.30469,1.05469 z m -1.58203,-8.38477 q 0,1.14258 0.46582,1.95118 0.47461,0.7998 1.47656,0.7998 1.16016,0 1.66992,-0.8789 v -3.99024 q -0.50097,-0.87012 -1.65234,-0.87012 -0.99316,0 -1.47656,0.81739 -0.4834,0.80859 -0.4834,1.98632 z"
         id="path2921436" />
    </g>
    <g
       aria-label="Model evaluationand iteration"
       id="Model-evaluation-and"
       style="font-weight:bold;font-size:18px;font-family:Roboto-Bold, Roboto;fill:#000000">
      <path
         d="m 389.875,427.48437 3.27832,-9.28125 h 3.4541 V 431 h -2.64551 v -3.49805 l 0.26368,-6.01172 L 390.78027,431 h -1.81054 l -3.44532,-9.50977 0.26368,6.01172 V 431 h -2.64551 v -12.79688 h 3.4541 z"
         id="path2921439" />
      <path
         d="m 398.34766,426.15723 q 0,-2.07422 1.17773,-3.45411 1.17773,-1.38867 3.32227,-1.38867 2.17089,0 3.33984,1.38867 1.16895,1.37989 1.16895,3.45411 v 0.18457 q 0,2.07422 -1.16895,3.4541 -1.16895,1.37988 -3.32227,1.37988 -2.13574,0 -3.31347,-1.34473 -1.16895,-1.34472 -1.2041,-3.375 z m 2.54882,0.18457 q 0,1.16015 0.43946,1.97754 0.44824,0.80859 1.52929,0.80859 1.06348,0 1.50293,-0.80859 0.44825,-0.8086 0.44825,-2.16211 0,-1.13379 -0.44825,-1.95996 -0.43945,-0.83497 -1.5205,-0.83497 -1.07227,0 -1.51172,0.82618 -0.43946,0.82617 -0.43946,2.15332 z"
         id="path2921441" />
      <path
         d="m 414.80078,431 -0.12305,-1.01074 q -0.94043,1.18652 -2.43457,1.18652 -1.7666,0 -2.74218,-1.37109 -0.97559,-1.3711 -0.97559,-3.44532 v -0.18457 q 0,-2.17089 0.97559,-3.51562 0.97558,-1.34473 2.75976,-1.34473 1.38867,0 2.28516,1.02832 V 417.5 h 2.54883 V 431 Z m -3.72656,-4.64063 q 0,1.14258 0.4043,1.95118 0.40429,0.7998 1.40625,0.7998 1.16015,0 1.66113,-0.98437 v -3.77051 q -0.4834,-0.98438 -1.64356,-0.98438 -0.99316,0 -1.41504,0.8086 -0.41308,0.80859 -0.41308,2.17968 z"
         id="path2921443" />
      <path
         d="m 427.16699,429.45312 q -0.45703,0.6504 -1.38867,1.18653 -0.93164,0.53613 -2.32031,0.53613 -2.21485,0 -3.46289,-1.33594 -1.24805,-1.34472 -1.25684,-3.24316 v -0.36914 q 0,-2.15332 1.19531,-3.5332 1.20411,-1.37989 3.24317,-1.37989 2.04785,0 3.12011,1.28321 1.07227,1.2832 1.07227,3.39257 v 1.08106 h -6.05566 q 0.13183,0.92285 0.72949,1.49414 0.59765,0.5625 1.57324,0.5625 1.4502,0 2.29395,-1.06348 z m -4.00781,-6.09082 q -0.80859,0 -1.24805,0.54493 -0.43945,0.54492 -0.57129,1.42382 h 3.53321 v -0.19335 q -0.0176,-0.76465 -0.43067,-1.26563 -0.40429,-0.50977 -1.2832,-0.50977 z"
         id="path2921445" />
      <path
         d="M 431.49121,417.5 V 431 h -2.54883 v -13.5 z"
         id="path2921447" />
      <path
         d="m 446.15137,429.45312 q -0.45703,0.6504 -1.38867,1.18653 -0.93165,0.53613 -2.32032,0.53613 -2.21484,0 -3.46289,-1.33594 -1.24804,-1.34472 -1.25683,-3.24316 v -0.36914 q 0,-2.15332 1.19531,-3.5332 1.2041,-1.37989 3.24316,-1.37989 2.04785,0 3.12012,1.28321 1.07227,1.2832 1.07227,3.39257 v 1.08106 h -6.05567 q 0.13184,0.92285 0.72949,1.49414 0.59766,0.5625 1.57325,0.5625 1.45019,0 2.29394,-1.06348 z m -4.00782,-6.09082 q -0.80859,0 -1.24804,0.54493 -0.43946,0.54492 -0.57129,1.42382 h 3.5332 v -0.19335 q -0.0176,-0.76465 -0.43066,-1.26563 -0.4043,-0.50977 -1.28321,-0.50977 z"
         id="path2921449" />
      <path
         d="M 455.65234,421.49023 452.44434,431 h -2.417 l -3.21679,-9.50977 h 2.66308 l 1.7666,6.38965 1.75782,-6.38965 z"
         id="path2921451" />
      <path
         d="m 462.15625,431 q -0.1582,-0.33398 -0.25488,-0.85254 -0.92285,1.02832 -2.39942,1.02832 -1.3623,0 -2.29394,-0.7998 -0.93164,-0.8086 -0.93164,-2.04786 0,-1.49414 1.10742,-2.31152 1.10742,-0.82617 3.27832,-0.82617 h 1.13379 v -0.55371 q 0,-0.65918 -0.34278,-1.0459 -0.33398,-0.39551 -1.06347,-0.39551 -1.36231,0 -1.36231,1.14258 h -2.54004 q 0,-1.23926 1.09864,-2.12695 1.09863,-0.89649 2.94433,-0.89649 1.64356,0 2.72461,0.83496 1.08985,0.83496 1.08985,2.50489 v 4.23632 q 0.0176,1.26563 0.37793,1.95997 V 431 Z m -2.10059,-1.7666 q 0.64161,0 1.08985,-0.28125 0.45703,-0.29004 0.65039,-0.63281 v -1.65235 h -1.03711 q -1.01074,0 -1.47656,0.43067 -0.46582,0.42187 -0.46582,1.04589 0,0.47461 0.32519,0.78223 0.33399,0.30762 0.91406,0.30762 z"
         id="path2921453" />
      <path
         d="M 468.98535,417.5 V 431 h -2.54883 v -13.5 z"
         id="path2921455" />
      <path
         d="m 476.84277,431 -0.0703,-0.97559 q -0.93164,1.15137 -2.60156,1.15137 -1.39746,0 -2.27637,-0.81738 -0.87012,-0.81738 -0.87891,-2.68067 v -6.1875 h 2.54004 v 6.16993 q 0,0.79101 0.37793,1.125 0.37793,0.32519 0.9668,0.32519 1.29199,0 1.78418,-0.90527 v -6.71485 h 2.54883 V 431 Z"
         id="path2921457" />
      <path
         d="m 486.66016,431 q -0.15821,-0.33398 -0.25489,-0.85254 -0.92285,1.02832 -2.39941,1.02832 -1.36231,0 -2.29395,-0.7998 -0.93164,-0.8086 -0.93164,-2.04786 0,-1.49414 1.10743,-2.31152 1.10742,-0.82617 3.27832,-0.82617 h 1.13378 v -0.55371 q 0,-0.65918 -0.34277,-1.0459 -0.33398,-0.39551 -1.06348,-0.39551 -1.3623,0 -1.3623,1.14258 h -2.54004 q 0,-1.23926 1.09863,-2.12695 1.09864,-0.89649 2.94434,-0.89649 1.64355,0 2.72461,0.83496 1.08984,0.83496 1.08984,2.50489 v 4.23632 q 0.0176,1.26563 0.37793,1.95997 V 431 Z m -2.10059,-1.7666 q 0.6416,0 1.08984,-0.28125 0.45704,-0.29004 0.65039,-0.63281 v -1.65235 h -1.0371 q -1.01075,0 -1.47657,0.43067 -0.46582,0.42187 -0.46582,1.04589 0,0.47461 0.3252,0.78223 0.33398,0.30762 0.91406,0.30762 z"
         id="path2921459" />
      <path
         d="m 495.56348,430.93848 q -0.71192,0.2373 -1.5293,0.2373 -1.24805,0 -1.98633,-0.65039 -0.73828,-0.65039 -0.73828,-2.16211 v -5.01855 h -1.39746 v -1.8545 h 1.39746 v -2.34668 h 2.54004 v 2.34668 h 1.61719 v 1.8545 h -1.61719 v 4.75488 q 0,0.59766 0.24609,0.79101 0.2461,0.19336 0.7295,0.19336 0.38671,0 0.73828,-0.0703 z"
         id="path2921461" />
      <path
         d="m 496.86426,419.0293 q 0,-0.57129 0.38672,-0.94043 0.38672,-0.37793 1.03711,-0.37793 0.65039,0 1.03711,0.37793 0.38671,0.36914 0.38671,0.94043 0,0.5625 -0.38671,0.94043 -0.38672,0.36914 -1.03711,0.36914 -0.65039,0 -1.03711,-0.36914 -0.38672,-0.37793 -0.38672,-0.94043 z m 2.70703,2.46093 V 431 h -2.54883 v -9.50977 z"
         id="path2921463" />
      <path
         d="m 501.25879,426.15723 q 0,-2.07422 1.17773,-3.45411 1.17774,-1.38867 3.32227,-1.38867 2.1709,0 3.33984,1.38867 1.16895,1.37989 1.16895,3.45411 v 0.18457 q 0,2.07422 -1.16895,3.4541 -1.16894,1.37988 -3.32226,1.37988 -2.13575,0 -3.31348,-1.34473 -1.16894,-1.34472 -1.2041,-3.375 z m 2.54883,0.18457 q 0,1.16015 0.43945,1.97754 0.44824,0.80859 1.5293,0.80859 1.06347,0 1.50293,-0.80859 0.44824,-0.8086 0.44824,-2.16211 0,-1.13379 -0.44824,-1.95996 -0.43946,-0.83497 -1.52051,-0.83497 -1.07227,0 -1.51172,0.82618 -0.43945,0.82617 -0.43945,2.15332 z"
         id="path2921465" />
      <path
         d="m 515.93652,423.37109 q -1.08105,0 -1.6084,0.91407 V 431 h -2.54003 v -9.50977 h 2.38183 l 0.0879,1.08985 q 1.01953,-1.26563 2.7334,-1.26563 1.34473,0 2.1709,0.79981 0.82617,0.7998 0.83496,2.78613 V 431 h -2.54883 v -6.06445 q 0,-0.91407 -0.39551,-1.23926 -0.38671,-0.3252 -1.11621,-0.3252 z"
         id="path2921467" />
      <path
         d="m 388.48633,452 q -0.15821,-0.33398 -0.25488,-0.85254 -0.92286,1.02832 -2.39942,1.02832 -1.3623,0 -2.29394,-0.7998 -0.93164,-0.8086 -0.93164,-2.04786 0,-1.49414 1.10742,-2.31152 1.10742,-0.82617 3.27832,-0.82617 h 1.13379 v -0.55371 q 0,-0.65918 -0.34278,-1.0459 -0.33398,-0.39551 -1.06347,-0.39551 -1.36231,0 -1.36231,1.14258 h -2.54004 q 0,-1.23926 1.09864,-2.12695 1.09863,-0.89649 2.94433,-0.89649 1.64356,0 2.72461,0.83496 1.08984,0.83496 1.08984,2.50489 v 4.23632 q 0.0176,1.26563 0.37793,1.95997 V 452 Z m -2.10059,-1.7666 q 0.6416,0 1.08985,-0.28125 0.45703,-0.29004 0.65039,-0.63281 v -1.65235 h -1.03711 q -1.01075,0 -1.47657,0.43067 -0.46582,0.42187 -0.46582,1.04589 0,0.47461 0.3252,0.78223 0.33398,0.30762 0.91406,0.30762 z"
         id="path2921469" />
      <path
         d="m 396.73047,444.37109 q -1.08106,0 -1.6084,0.91407 V 452 h -2.54004 v -9.50977 h 2.38184 l 0.0879,1.08985 q 1.01953,-1.26563 2.7334,-1.26563 1.34472,0 2.17089,0.79981 0.82618,0.7998 0.83497,2.78613 V 452 h -2.54883 v -6.06445 q 0,-0.91407 -0.39551,-1.23926 -0.38672,-0.3252 -1.11621,-0.3252 z"
         id="path2921471" />
      <path
         d="m 408.58691,452 -0.12304,-1.01074 q -0.94043,1.18652 -2.43457,1.18652 -1.7666,0 -2.74219,-1.37109 -0.97559,-1.3711 -0.97559,-3.44532 v -0.18457 q 0,-2.17089 0.97559,-3.51562 0.97559,-1.34473 2.75976,-1.34473 1.38868,0 2.28516,1.02832 V 438.5 h 2.54883 V 452 Z m -3.72656,-4.64063 q 0,1.14258 0.4043,1.95118 0.4043,0.7998 1.40625,0.7998 1.16015,0 1.66113,-0.98437 v -3.77051 q -0.4834,-0.98438 -1.64355,-0.98438 -0.99317,0 -1.41504,0.8086 -0.41309,0.80859 -0.41309,2.17968 z"
         id="path2921473" />
      <path
         d="m 417.32324,440.0293 q 0,-0.57129 0.38672,-0.94043 0.38672,-0.37793 1.03711,-0.37793 0.65039,0 1.03711,0.37793 0.38672,0.36914 0.38672,0.94043 0,0.5625 -0.38672,0.94043 -0.38672,0.36914 -1.03711,0.36914 -0.65039,0 -1.03711,-0.36914 -0.38672,-0.37793 -0.38672,-0.94043 z m 2.70703,2.46093 V 452 h -2.54882 v -9.50977 z"
         id="path2921475" />
      <path
         d="m 426.87695,451.93848 q -0.71191,0.2373 -1.52929,0.2373 -1.24805,0 -1.98633,-0.65039 -0.73828,-0.65039 -0.73828,-2.16211 v -5.01855 h -1.39746 v -1.8545 h 1.39746 v -2.34668 h 2.54004 v 2.34668 h 1.61718 v 1.8545 h -1.61718 v 4.75488 q 0,0.59766 0.24609,0.79101 0.24609,0.19336 0.72949,0.19336 0.38672,0 0.73828,-0.0703 z"
         id="path2921477" />
      <path
         d="m 436.29004,450.45312 q -0.45703,0.6504 -1.38867,1.18653 -0.93164,0.53613 -2.32032,0.53613 -2.21484,0 -3.46289,-1.33594 -1.24804,-1.34472 -1.25683,-3.24316 v -0.36914 q 0,-2.15332 1.19531,-3.5332 1.2041,-1.37989 3.24316,-1.37989 2.04786,0 3.12012,1.28321 1.07227,1.2832 1.07227,3.39257 v 1.08106 h -6.05567 q 0.13184,0.92285 0.7295,1.49414 0.59765,0.5625 1.57324,0.5625 1.45019,0 2.29394,-1.06348 z m -4.00781,-6.09082 q -0.8086,0 -1.24805,0.54493 -0.43945,0.54492 -0.57129,1.42382 h 3.5332 v -0.19335 q -0.0176,-0.76465 -0.43066,-1.26563 -0.4043,-0.50977 -1.2832,-0.50977 z"
         id="path2921479" />
      <path
         d="m 442.35449,444.79297 q -1.43262,0 -1.88086,0.97558 V 452 h -2.54883 v -9.50977 h 2.39942 l 0.0791,1.13379 q 0.74707,-1.30957 2.11816,-1.30957 0.4834,0 0.78223,0.11426 l -0.0264,2.43457 z"
         id="path2921481" />
      <path
         d="m 449.74609,452 q -0.1582,-0.33398 -0.25488,-0.85254 -0.92285,1.02832 -2.39941,1.02832 -1.36231,0 -2.29395,-0.7998 -0.93164,-0.8086 -0.93164,-2.04786 0,-1.49414 1.10742,-2.31152 1.10742,-0.82617 3.27832,-0.82617 h 1.13379 v -0.55371 q 0,-0.65918 -0.34277,-1.0459 -0.33399,-0.39551 -1.06348,-0.39551 -1.3623,0 -1.3623,1.14258 h -2.54004 q 0,-1.23926 1.09863,-2.12695 1.09863,-0.89649 2.94434,-0.89649 1.64355,0 2.72461,0.83496 1.08984,0.83496 1.08984,2.50489 v 4.23632 q 0.0176,1.26563 0.37793,1.95997 V 452 Z m -2.10058,-1.7666 q 0.6416,0 1.08984,-0.28125 0.45703,-0.29004 0.65039,-0.63281 v -1.65235 h -1.03711 q -1.01074,0 -1.47656,0.43067 -0.46582,0.42187 -0.46582,1.04589 0,0.47461 0.3252,0.78223 0.33398,0.30762 0.91406,0.30762 z"
         id="path2921483" />
      <path
         d="m 458.64941,451.93848 q -0.71191,0.2373 -1.52929,0.2373 -1.24805,0 -1.98633,-0.65039 -0.73828,-0.65039 -0.73828,-2.16211 v -5.01855 h -1.39746 v -1.8545 h 1.39746 v -2.34668 h 2.54004 v 2.34668 h 1.61718 v 1.8545 h -1.61718 v 4.75488 q 0,0.59766 0.24609,0.79101 0.24609,0.19336 0.72949,0.19336 0.38672,0 0.73828,-0.0703 z"
         id="path2921485" />
      <path
         d="m 459.9502,440.0293 q 0,-0.57129 0.38671,-0.94043 0.38672,-0.37793 1.03711,-0.37793 0.65039,0 1.03711,0.37793 0.38672,0.36914 0.38672,0.94043 0,0.5625 -0.38672,0.94043 -0.38672,0.36914 -1.03711,0.36914 -0.65039,0 -1.03711,-0.36914 -0.38671,-0.37793 -0.38671,-0.94043 z m 2.70703,2.46093 V 452 h -2.54883 v -9.50977 z"
         id="path2921487" />
      <path
         d="m 464.34473,447.15723 q 0,-2.07422 1.17773,-3.45411 1.17774,-1.38867 3.32227,-1.38867 2.17089,0 3.33984,1.38867 1.16895,1.37989 1.16895,3.45411 v 0.18457 q 0,2.07422 -1.16895,3.4541 -1.16895,1.37988 -3.32227,1.37988 -2.13574,0 -3.31347,-1.34473 -1.16895,-1.34472 -1.2041,-3.375 z m 2.54882,0.18457 q 0,1.16015 0.43946,1.97754 0.44824,0.80859 1.52929,0.80859 1.06348,0 1.50293,-0.80859 0.44825,-0.8086 0.44825,-2.16211 0,-1.13379 -0.44825,-1.95996 -0.43945,-0.83497 -1.5205,-0.83497 -1.07227,0 -1.51172,0.82618 -0.43946,0.82617 -0.43946,2.15332 z"
         id="path2921489" />
      <path
         d="m 479.02246,444.37109 q -1.08105,0 -1.6084,0.91407 V 452 h -2.54004 v -9.50977 h 2.38184 l 0.0879,1.08985 q 1.01953,-1.26563 2.7334,-1.26563 1.34472,0 2.1709,0.79981 0.82617,0.7998 0.83496,2.78613 V 452 h -2.54883 v -6.06445 q 0,-0.91407 -0.39551,-1.23926 -0.38672,-0.3252 -1.11621,-0.3252 z"
         id="path2921491" />
    </g>
    <g
       aria-label="Model deploymentand serving"
       id="Model-deployment-and"
       style="font-weight:bold;font-size:18px;font-family:Roboto-Bold, Roboto;fill:#000000">
      <path
         d="m 77.875,425.48437 3.27832,-9.28125 h 3.454102 V 429 h -2.645508 v -3.49805 L 82.225586,419.49023 78.780273,429 h -1.810546 l -3.445313,-9.50977 0.263672,6.01172 V 429 h -2.645508 v -12.79688 h 3.454102 z"
         id="path2921494" />
      <path
         d="m 86.347656,424.15723 q 0,-2.07422 1.177735,-3.45411 1.177734,-1.38867 3.322265,-1.38867 2.170899,0 3.339844,1.38867 1.168945,1.37989 1.168945,3.45411 v 0.18457 q 0,2.07422 -1.168945,3.4541 -1.168945,1.37988 -3.322266,1.37988 -2.135742,0 -3.313476,-1.34473 -1.168946,-1.34472 -1.204102,-3.375 z m 2.548828,0.18457 q 0,1.16015 0.439453,1.97754 0.448243,0.80859 1.529297,0.80859 1.063477,0 1.50293,-0.80859 0.448242,-0.8086 0.448242,-2.16211 0,-1.13379 -0.448242,-1.95996 -0.439453,-0.83497 -1.520508,-0.83497 -1.072265,0 -1.511719,0.82618 -0.439453,0.82617 -0.439453,2.15332 z"
         id="path2921496" />
      <path
         d="m 102.80078,429 -0.12305,-1.01074 q -0.94043,1.18652 -2.43457,1.18652 -1.766598,0 -2.742183,-1.37109 -0.975586,-1.3711 -0.975586,-3.44532 v -0.18457 q 0,-2.17089 0.975586,-3.51562 0.975585,-1.34473 2.759763,-1.34473 1.38867,0 2.28516,1.02832 V 415.5 h 2.54883 V 429 Z m -3.726561,-4.64063 q 0,1.14258 0.404297,1.95118 0.404296,0.7998 1.406254,0.7998 1.16015,0 1.66113,-0.98437 v -3.77051 q -0.4834,-0.98438 -1.64356,-0.98438 -0.99316,0 -1.415035,0.8086 -0.413086,0.80859 -0.413086,2.17968 z"
         id="path2921498" />
      <path
         d="m 115.16699,427.45312 q -0.45703,0.6504 -1.38867,1.18653 -0.93164,0.53613 -2.32031,0.53613 -2.21485,0 -3.46289,-1.33594 -1.24805,-1.34472 -1.25684,-3.24316 v -0.36914 q 0,-2.15332 1.19531,-3.5332 1.20411,-1.37989 3.24317,-1.37989 2.04785,0 3.12012,1.28321 1.07226,1.2832 1.07226,3.39257 v 1.08106 h -6.05566 q 0.13183,0.92285 0.72949,1.49414 0.59766,0.5625 1.57324,0.5625 1.4502,0 2.29395,-1.06348 z m -4.00781,-6.09082 q -0.80859,0 -1.24805,0.54493 -0.43945,0.54492 -0.57129,1.42382 h 3.53321 v -0.19335 q -0.0176,-0.76465 -0.43067,-1.26563 -0.40429,-0.50977 -1.2832,-0.50977 z"
         id="path2921500" />
      <path
         d="M 119.49121,415.5 V 429 h -2.54883 v -13.5 z"
         id="path2921502" />
      <path
         d="m 131.93652,429 -0.12304,-1.01074 q -0.94043,1.18652 -2.43457,1.18652 -1.76661,0 -2.74219,-1.37109 -0.97559,-1.3711 -0.97559,-3.44532 v -0.18457 q 0,-2.17089 0.97559,-3.51562 0.97558,-1.34473 2.75976,-1.34473 1.38868,0 2.28516,1.02832 V 415.5 h 2.54883 V 429 Z m -3.72656,-4.64063 q 0,1.14258 0.4043,1.95118 0.40429,0.7998 1.40625,0.7998 1.16015,0 1.66113,-0.98437 v -3.77051 q -0.4834,-0.98438 -1.64355,-0.98438 -0.99317,0 -1.41504,0.8086 -0.41309,0.80859 -0.41309,2.17968 z"
         id="path2921504" />
      <path
         d="m 144.30273,427.45312 q -0.45703,0.6504 -1.38867,1.18653 -0.93164,0.53613 -2.32031,0.53613 -2.21484,0 -3.46289,-1.33594 -1.24805,-1.34472 -1.25684,-3.24316 v -0.36914 q 0,-2.15332 1.19532,-3.5332 1.2041,-1.37989 3.24316,-1.37989 2.04785,0 3.12012,1.28321 1.07226,1.2832 1.07226,3.39257 v 1.08106 h -6.05566 q 0.13183,0.92285 0.72949,1.49414 0.59766,0.5625 1.57324,0.5625 1.4502,0 2.29395,-1.06348 z m -4.00781,-6.09082 q -0.80859,0 -1.24805,0.54493 -0.43945,0.54492 -0.57128,1.42382 h 3.5332 v -0.19335 q -0.0176,-0.76465 -0.43067,-1.26563 -0.40429,-0.50977 -1.2832,-0.50977 z"
         id="path2921506" />
      <path
         d="m 150.81543,429.17578 q -1.42383,0 -2.3291,-1.01074 v 4.49121 h -2.54883 v -13.16602 h 2.36426 l 0.0967,0.92286 q 0.90527,-1.09864 2.39062,-1.09864 1.81055,0 2.75977,1.32715 0.95801,1.32715 0.95801,3.49805 v 0.18457 q 0,2.07422 -0.95801,3.46289 -0.94922,1.38867 -2.7334,1.38867 z m -0.68555,-7.80469 q -1.18652,0 -1.64355,0.92286 v 3.89355 q 0.47461,0.94043 1.66113,0.94043 0.99316,0 1.40625,-0.81738 0.41309,-0.82618 0.41309,-2.1709 0,-1.17774 -0.43067,-1.96875 -0.42187,-0.79981 -1.40625,-0.79981 z"
         id="path2921508" />
      <path
         d="M 158.76074,415.5 V 429 h -2.54883 v -13.5 z"
         id="path2921510" />
      <path
         d="m 160.44824,424.15723 q 0,-2.07422 1.17774,-3.45411 1.17773,-1.38867 3.32226,-1.38867 2.1709,0 3.33985,1.38867 1.16894,1.37989 1.16894,3.45411 v 0.18457 q 0,2.07422 -1.16894,3.4541 -1.16895,1.37988 -3.32227,1.37988 -2.13574,0 -3.31348,-1.34473 -1.16894,-1.34472 -1.2041,-3.375 z m 2.54883,0.18457 q 0,1.16015 0.43945,1.97754 0.44825,0.80859 1.5293,0.80859 1.06348,0 1.50293,-0.80859 0.44824,-0.8086 0.44824,-2.16211 0,-1.13379 -0.44824,-1.95996 -0.43945,-0.83497 -1.52051,-0.83497 -1.07226,0 -1.51172,0.82618 -0.43945,0.82617 -0.43945,2.15332 z"
         id="path2921512" />
      <path
         d="m 172.07617,432.84082 q -0.49219,0 -1.125,-0.16699 v -1.92481 l 0.39551,0.009 q 0.74707,0 1.10742,-0.24609 0.36035,-0.23731 0.54492,-0.76465 l 0.28125,-0.72949 -3.33105,-9.52735 h 2.7334 l 1.7666,5.92383 1.75781,-5.92383 h 2.71582 l -3.80566,10.9336 q -0.16699,0.47461 -0.49219,1.03711 -0.3252,0.57129 -0.94043,0.97558 -0.60645,0.4043 -1.6084,0.4043 z"
         id="path2921514" />
      <path
         d="m 184.03809,421.37109 q -1.05469,0 -1.55567,0.89649 V 429 h -2.54883 v -9.50977 h 2.39063 l 0.0879,1.0459 q 0.99316,-1.22168 2.72461,-1.22168 1.83691,0 2.52246,1.4502 0.97559,-1.4502 2.85644,-1.4502 1.3711,0 2.20606,0.8086 0.83496,0.80859 0.84375,2.77734 V 429 h -2.54883 v -6.06445 q 0,-0.94922 -0.38672,-1.25684 -0.37793,-0.30762 -1.03711,-0.30762 -1.125,0 -1.57324,1.06348 V 429 h -2.54004 v -6.04688 q 0,-0.94042 -0.38672,-1.25683 -0.38672,-0.3252 -1.05468,-0.3252 z"
         id="path2921516" />
      <path
         d="m 203.61133,427.45312 q -0.45703,0.6504 -1.38867,1.18653 -0.93164,0.53613 -2.32032,0.53613 -2.21484,0 -3.46289,-1.33594 -1.24804,-1.34472 -1.25683,-3.24316 v -0.36914 q 0,-2.15332 1.19531,-3.5332 1.2041,-1.37989 3.24316,-1.37989 2.04786,0 3.12012,1.28321 1.07227,1.2832 1.07227,3.39257 v 1.08106 h -6.05567 q 0.13184,0.92285 0.72949,1.49414 0.59766,0.5625 1.57325,0.5625 1.45019,0 2.29394,-1.06348 z m -4.00781,-6.09082 q -0.8086,0 -1.24805,0.54493 -0.43945,0.54492 -0.57129,1.42382 h 3.5332 v -0.19335 q -0.0176,-0.76465 -0.43066,-1.26563 -0.4043,-0.50977 -1.2832,-0.50977 z"
         id="path2921518" />
      <path
         d="m 209.35059,421.37109 q -1.08106,0 -1.6084,0.91407 V 429 h -2.54004 v -9.50977 h 2.38183 l 0.0879,1.08985 q 1.01954,-1.26563 2.7334,-1.26563 1.34473,0 2.1709,0.79981 0.82617,0.7998 0.83496,2.78613 V 429 h -2.54883 v -6.06445 q 0,-0.91407 -0.3955,-1.23926 -0.38672,-0.3252 -1.11621,-0.3252 z"
         id="path2921520" />
      <path
         d="m 220.09082,428.93848 q -0.71191,0.2373 -1.5293,0.2373 -1.24804,0 -1.98632,-0.65039 -0.73829,-0.65039 -0.73829,-2.16211 v -5.01855 h -1.39746 v -1.8545 h 1.39746 v -2.34668 h 2.54004 v 2.34668 h 1.61719 v 1.8545 h -1.61719 v 4.75488 q 0,0.59766 0.2461,0.79101 0.24609,0.19336 0.72949,0.19336 0.38672,0 0.73828,-0.0703 z"
         id="path2921522" />
      <path
         d="m 76.486328,450 q -0.158203,-0.33398 -0.254883,-0.85254 -0.922851,1.02832 -2.399414,1.02832 -1.362304,0 -2.293945,-0.7998 -0.931641,-0.8086 -0.931641,-2.04786 0,-1.49414 1.107422,-2.31152 1.107422,-0.82617 3.27832,-0.82617 h 1.13379 v -0.55371 q 0,-0.65918 -0.342774,-1.0459 -0.333984,-0.39551 -1.063476,-0.39551 -1.362305,0 -1.362305,1.14258 h -2.540039 q 0,-1.23926 1.098633,-2.12695 1.098632,-0.89649 2.944336,-0.89649 1.643554,0 2.724609,0.83496 1.089844,0.83496 1.089844,2.50489 v 4.23632 q 0.01758,1.26563 0.377929,1.95997 V 450 Z m -2.100586,-1.7666 q 0.641602,0 1.089844,-0.28125 0.457031,-0.29004 0.650391,-0.63281 v -1.65235 h -1.03711 q -1.010742,0 -1.476562,0.43067 -0.465821,0.42187 -0.465821,1.04589 0,0.47461 0.325196,0.78223 0.333984,0.30762 0.914062,0.30762 z"
         id="path2921524" />
      <path
         d="m 84.730469,442.37109 q -1.081055,0 -1.608399,0.91407 V 450 h -2.540039 v -9.50977 h 2.381836 l 0.08789,1.08985 q 1.019531,-1.26563 2.733398,-1.26563 1.344727,0 2.170899,0.79981 0.826172,0.7998 0.834961,2.78613 V 450 h -2.548829 v -6.06445 q 0,-0.91407 -0.395507,-1.23926 -0.386719,-0.3252 -1.116211,-0.3252 z"
         id="path2921526" />
      <path
         d="m 96.586914,450 -0.123047,-1.01074 q -0.94043,1.18652 -2.43457,1.18652 -1.766602,0 -2.742188,-1.37109 -0.975586,-1.3711 -0.975586,-3.44532 v -0.18457 q 0,-2.17089 0.975586,-3.51562 0.975586,-1.34473 2.759766,-1.34473 1.388672,0 2.285156,1.02832 V 436.5 h 2.548828 V 450 Z m -3.726562,-4.64063 q 0,1.14258 0.404296,1.95118 0.404297,0.7998 1.40625,0.7998 1.160157,0 1.661133,-0.98437 v -3.77051 q -0.483398,-0.98438 -1.643554,-0.98438 -0.993165,0 -1.41504,0.8086 -0.413085,0.80859 -0.413085,2.17968 z"
         id="path2921528" />
      <path
         d="m 110.49121,447.36328 q 0,-0.4043 -0.37793,-0.67676 -0.36914,-0.28125 -1.59961,-0.54492 -1.46777,-0.3164 -2.4082,-0.98437 -0.94043,-0.66797 -0.94043,-1.88965 0,-1.18653 1.00195,-2.06543 1.01074,-0.8877 2.78614,-0.8877 1.85449,0 2.91796,0.87012 1.06348,0.87012 1.06348,2.19727 h -2.54004 q 0,-0.54493 -0.35156,-0.90528 -0.35156,-0.36035 -1.09863,-0.36035 -0.63282,0 -0.99317,0.29883 -0.35156,0.29004 -0.35156,0.72949 0,0.4043 0.37793,0.66797 0.37793,0.26367 1.39746,0.46582 1.54688,0.30762 2.56641,0.94043 1.01953,0.63281 1.01953,2.04785 0,1.25684 -1.08106,2.08301 -1.08105,0.82617 -2.91797,0.82617 -1.99511,0 -3.0498,-1.01953 -1.05469,-1.02832 -1.05469,-2.18848 h 2.41699 q 0.0352,0.74707 0.54493,1.07227 0.51855,0.32519 1.19531,0.32519 1.47656,0 1.47656,-1.00195 z"
         id="path2921530" />
      <path
         d="m 122.69922,448.45312 q -0.45703,0.6504 -1.38867,1.18653 -0.93164,0.53613 -2.32032,0.53613 -2.21484,0 -3.46289,-1.33594 -1.24804,-1.34472 -1.25683,-3.24316 v -0.36914 q 0,-2.15332 1.19531,-3.5332 1.2041,-1.37989 3.24316,-1.37989 2.04786,0 3.12012,1.28321 1.07227,1.2832 1.07227,3.39257 v 1.08106 h -6.05567 q 0.13184,0.92285 0.7295,1.49414 0.59765,0.5625 1.57324,0.5625 1.45019,0 2.29394,-1.06348 z m -4.00781,-6.09082 q -0.8086,0 -1.24805,0.54493 -0.43945,0.54492 -0.57129,1.42382 h 3.5332 v -0.19335 q -0.0176,-0.76465 -0.43066,-1.26563 -0.4043,-0.50977 -1.2832,-0.50977 z"
         id="path2921532" />
      <path
         d="m 128.76367,442.79297 q -1.43262,0 -1.88086,0.97558 V 450 h -2.54883 v -9.50977 h 2.39942 l 0.0791,1.13379 q 0.74707,-1.30957 2.11816,-1.30957 0.4834,0 0.78223,0.11426 l -0.0264,2.43457 z"
         id="path2921534" />
      <path
         d="M 139.04687,440.49023 135.83887,450 h -2.417 l -3.21679,-9.50977 h 2.66308 l 1.76661,6.38965 1.75781,-6.38965 z"
         id="path2921536" />
      <path
         d="m 140.1543,438.0293 q 0,-0.57129 0.38672,-0.94043 0.38671,-0.37793 1.0371,-0.37793 0.6504,0 1.03711,0.37793 0.38672,0.36914 0.38672,0.94043 0,0.5625 -0.38672,0.94043 -0.38671,0.36914 -1.03711,0.36914 -0.65039,0 -1.0371,-0.36914 -0.38672,-0.37793 -0.38672,-0.94043 z m 2.70703,2.46093 V 450 h -2.54883 v -9.50977 z"
         id="path2921538" />
      <path
         d="m 149.04883,442.37109 q -1.08106,0 -1.6084,0.91407 V 450 h -2.54004 v -9.50977 h 2.38184 l 0.0879,1.08985 q 1.01953,-1.26563 2.7334,-1.26563 1.34472,0 2.17089,0.79981 0.82618,0.7998 0.83496,2.78613 V 450 h -2.54882 v -6.06445 q 0,-0.91407 -0.39551,-1.23926 -0.38672,-0.3252 -1.11621,-0.3252 z"
         id="path2921540" />
      <path
         d="m 158.77832,453.74414 q -0.86133,0 -1.89844,-0.36035 -1.02832,-0.36035 -1.64355,-1.125 l 1.125,-1.54688 q 0.94043,1.05469 2.31152,1.05469 1.01074,0 1.57324,-0.54492 0.5625,-0.53613 0.5625,-1.53809 v -0.50976 q -0.89648,1.00195 -2.31152,1.00195 -1.7666,0 -2.79492,-1.35351 -1.02832,-1.35352 -1.0459,-3.39258 v -0.25489 q 0,-2.17089 1.02832,-3.51562 1.03711,-1.34473 2.83008,-1.34473 1.57324,0 2.44336,1.07227 l 0.0967,-0.89649 h 2.30273 v 9.18457 q 0,1.95997 -1.27441,3.01465 -1.26563,1.05469 -3.30469,1.05469 z m -1.58203,-8.38477 q 0,1.14258 0.46582,1.95118 0.47461,0.7998 1.47656,0.7998 1.16016,0 1.66992,-0.8789 v -3.99024 q -0.50097,-0.87012 -1.65234,-0.87012 -0.99316,0 -1.47656,0.81739 -0.4834,0.80859 -0.4834,1.98632 z"
         id="path2921542" />
    </g>
    <g
       aria-label="Model monitoring"
       id="Model-monitoring"
       style="font-weight:bold;font-size:18px;font-family:Roboto-Bold, Roboto;fill:#000000">
      <path
         d="m 56.875,257.48437 3.27832,-9.28125 h 3.454102 V 261 h -2.645508 v -3.49805 L 61.225586,251.49023 57.780273,261 h -1.810546 l -3.445313,-9.50977 0.263672,6.01172 V 261 h -2.645508 v -12.79688 h 3.454102 z"
         id="path2921545" />
      <path
         d="m 65.347656,256.15723 q 0,-2.07422 1.177735,-3.45411 1.177734,-1.38867 3.322265,-1.38867 2.170899,0 3.339844,1.38867 1.168945,1.37989 1.168945,3.45411 v 0.18457 q 0,2.07422 -1.168945,3.4541 -1.168945,1.37988 -3.322266,1.37988 -2.135742,0 -3.313476,-1.34473 -1.168946,-1.34472 -1.204102,-3.375 z m 2.548828,0.18457 q 0,1.16015 0.439453,1.97754 0.448243,0.80859 1.529297,0.80859 1.063477,0 1.50293,-0.80859 0.448242,-0.8086 0.448242,-2.16211 0,-1.13379 -0.448242,-1.95996 -0.439453,-0.83497 -1.520508,-0.83497 -1.072265,0 -1.511719,0.82618 -0.439453,0.82617 -0.439453,2.15332 z"
         id="path2921547" />
      <path
         d="m 81.800781,261 -0.123047,-1.01074 q -0.940429,1.18652 -2.43457,1.18652 -1.766602,0 -2.742187,-1.37109 -0.975586,-1.3711 -0.975586,-3.44532 v -0.18457 q 0,-2.17089 0.975586,-3.51562 0.975585,-1.34473 2.759765,-1.34473 1.388672,0 2.285156,1.02832 V 247.5 h 2.548829 V 261 Z m -3.726562,-4.64063 q 0,1.14258 0.404297,1.95118 0.404296,0.7998 1.40625,0.7998 1.160156,0 1.661132,-0.98437 v -3.77051 q -0.483398,-0.98438 -1.643554,-0.98438 -0.993164,0 -1.415039,0.8086 -0.413086,0.80859 -0.413086,2.17968 z"
         id="path2921549" />
      <path
         d="m 94.166992,259.45312 q -0.457031,0.6504 -1.388672,1.18653 -0.93164,0.53613 -2.320312,0.53613 -2.214844,0 -3.462891,-1.33594 -1.248047,-1.34472 -1.256836,-3.24316 v -0.36914 q 0,-2.15332 1.195313,-3.5332 1.204101,-1.37989 3.243164,-1.37989 2.047851,0 3.120117,1.28321 1.072266,1.2832 1.072266,3.39257 v 1.08106 h -6.055664 q 0.131835,0.92285 0.729492,1.49414 0.597656,0.5625 1.573242,0.5625 1.450195,0 2.293945,-1.06348 z M 90.15918,253.3623 q -0.808594,0 -1.248047,0.54493 -0.439453,0.54492 -0.571289,1.42382 h 3.533203 v -0.19335 q -0.01758,-0.76465 -0.430664,-1.26563 -0.404297,-0.50977 -1.283203,-0.50977 z"
         id="path2921551" />
      <path
         d="M 98.491211,247.5 V 261 h -2.548828 v -13.5 z"
         id="path2921553" />
      <path
         d="m 109.16113,253.37109 q -1.05468,0 -1.55566,0.89649 V 261 h -2.54883 v -9.50977 h 2.39063 l 0.0879,1.0459 q 0.99316,-1.22168 2.72461,-1.22168 1.83691,0 2.52246,1.4502 0.97558,-1.4502 2.85644,-1.4502 1.3711,0 2.20606,0.8086 0.83496,0.80859 0.84375,2.77734 V 261 h -2.54883 v -6.06445 q 0,-0.94922 -0.38672,-1.25684 -0.37793,-0.30762 -1.03711,-0.30762 -1.125,0 -1.57324,1.06348 V 261 h -2.54004 v -6.04688 q 0,-0.94042 -0.38672,-1.25683 -0.38672,-0.3252 -1.05469,-0.3252 z"
         id="path2921555" />
      <path
         d="m 120.24414,256.15723 q 0,-2.07422 1.17774,-3.45411 1.17773,-1.38867 3.32226,-1.38867 2.1709,0 3.33984,1.38867 1.16895,1.37989 1.16895,3.45411 v 0.18457 q 0,2.07422 -1.16895,3.4541 -1.16894,1.37988 -3.32226,1.37988 -2.13574,0 -3.31348,-1.34473 -1.16894,-1.34472 -1.2041,-3.375 z m 2.54883,0.18457 q 0,1.16015 0.43945,1.97754 0.44824,0.80859 1.5293,0.80859 1.06348,0 1.50293,-0.80859 0.44824,-0.8086 0.44824,-2.16211 0,-1.13379 -0.44824,-1.95996 -0.43945,-0.83497 -1.52051,-0.83497 -1.07226,0 -1.51172,0.82618 -0.43945,0.82617 -0.43945,2.15332 z"
         id="path2921557" />
      <path
         d="m 134.92187,253.37109 q -1.08105,0 -1.60839,0.91407 V 261 h -2.54004 v -9.50977 h 2.38183 l 0.0879,1.08985 q 1.01954,-1.26563 2.7334,-1.26563 1.34473,0 2.1709,0.79981 0.82617,0.7998 0.83496,2.78613 V 261 h -2.54883 v -6.06445 q 0,-0.91407 -0.3955,-1.23926 -0.38672,-0.3252 -1.11622,-0.3252 z"
         id="path2921559" />
      <path
         d="m 140.88086,249.0293 q 0,-0.57129 0.38672,-0.94043 0.38672,-0.37793 1.03711,-0.37793 0.65039,0 1.03711,0.37793 0.38672,0.36914 0.38672,0.94043 0,0.5625 -0.38672,0.94043 -0.38672,0.36914 -1.03711,0.36914 -0.65039,0 -1.03711,-0.36914 -0.38672,-0.37793 -0.38672,-0.94043 z m 2.70703,2.46093 V 261 h -2.54883 v -9.50977 z"
         id="path2921561" />
      <path
         d="m 150.43457,260.93848 q -0.71191,0.2373 -1.5293,0.2373 -1.24804,0 -1.98632,-0.65039 -0.73829,-0.65039 -0.73829,-2.16211 v -5.01855 h -1.39746 v -1.8545 h 1.39746 v -2.34668 h 2.54004 v 2.34668 h 1.61719 v 1.8545 h -1.61719 v 4.75488 q 0,0.59766 0.2461,0.79101 0.24609,0.19336 0.72949,0.19336 0.38672,0 0.73828,-0.0703 z"
         id="path2921563" />
      <path
         d="m 151.09375,256.15723 q 0,-2.07422 1.17773,-3.45411 1.17774,-1.38867 3.32227,-1.38867 2.1709,0 3.33984,1.38867 1.16895,1.37989 1.16895,3.45411 v 0.18457 q 0,2.07422 -1.16895,3.4541 -1.16894,1.37988 -3.32226,1.37988 -2.13574,0 -3.31348,-1.34473 -1.16894,-1.34472 -1.2041,-3.375 z m 2.54883,0.18457 q 0,1.16015 0.43945,1.97754 0.44824,0.80859 1.5293,0.80859 1.06347,0 1.50293,-0.80859 0.44824,-0.8086 0.44824,-2.16211 0,-1.13379 -0.44824,-1.95996 -0.43946,-0.83497 -1.52051,-0.83497 -1.07227,0 -1.51172,0.82618 -0.43945,0.82617 -0.43945,2.15332 z"
         id="path2921565" />
      <path
         d="m 166.09668,253.79297 q -1.43262,0 -1.88086,0.97558 V 261 h -2.54883 v -9.50977 h 2.39942 l 0.0791,1.13379 q 0.74707,-1.30957 2.11816,-1.30957 0.4834,0 0.78223,0.11426 l -0.0264,2.43457 z"
         id="path2921567" />
      <path
         d="m 168.22363,249.0293 q 0,-0.57129 0.38672,-0.94043 0.38672,-0.37793 1.03711,-0.37793 0.65039,0 1.03711,0.37793 0.38672,0.36914 0.38672,0.94043 0,0.5625 -0.38672,0.94043 -0.38672,0.36914 -1.03711,0.36914 -0.65039,0 -1.03711,-0.36914 -0.38672,-0.37793 -0.38672,-0.94043 z m 2.70703,2.46093 V 261 h -2.54882 v -9.50977 z"
         id="path2921569" />
      <path
         d="m 177.11816,253.37109 q -1.08105,0 -1.60839,0.91407 V 261 h -2.54004 v -9.50977 h 2.38183 l 0.0879,1.08985 q 1.01953,-1.26563 2.7334,-1.26563 1.34473,0 2.1709,0.79981 0.82617,0.7998 0.83496,2.78613 V 261 h -2.54883 v -6.06445 q 0,-0.91407 -0.39551,-1.23926 -0.38671,-0.3252 -1.11621,-0.3252 z"
         id="path2921571" />
      <path
         d="m 186.84766,264.74414 q -0.86133,0 -1.89844,-0.36035 -1.02832,-0.36035 -1.64356,-1.125 l 1.125,-1.54688 q 0.94043,1.05469 2.31153,1.05469 1.01074,0 1.57324,-0.54492 0.5625,-0.53613 0.5625,-1.53809 v -0.50976 q -0.89648,1.00195 -2.31152,1.00195 -1.76661,0 -2.79493,-1.35351 -1.02832,-1.35352 -1.04589,-3.39258 v -0.25489 q 0,-2.17089 1.02832,-3.51562 1.03711,-1.34473 2.83007,-1.34473 1.57325,0 2.44336,1.07227 l 0.0967,-0.89649 h 2.30274 v 9.18457 q 0,1.95997 -1.27442,3.01465 -1.26562,1.05469 -3.30468,1.05469 z m -1.58204,-8.38477 q 0,1.14258 0.46583,1.95118 0.4746,0.7998 1.47656,0.7998 1.16015,0 1.66992,-0.8789 v -3.99024 q -0.50098,-0.87012 -1.65234,-0.87012 -0.99317,0 -1.47657,0.81739 -0.4834,0.80859 -0.4834,1.98632 z"
         id="path2921573" />
    </g>
    <path
       id="Path"
       d="m 408.71606,131.65876 c 16.98918,8.50734 29.31408,16.64549 36.98956,24.45107 4.8157,4.89732 9.579,11.4705 14.30064,19.72097 l 7.21697,-3.62667 0.0458,21.2426 -17.02154,-12.70894 7.07474,-3.55702 c -4.57532,-7.97513 -9.16405,-14.2981 -13.75565,-18.96752 -7.40464,-7.53015 -19.47419,-15.49969 -36.19374,-23.87201 z"
       fill="#659ef6"
       fill-rule="nonzero" />
    <path
       id="Path-Copy"
       d="m 454.96795,297.32527 c 14.69972,10.36057 25.36498,20.27272 31.99556,29.76355 4.50355,6.44625 8.95381,15.28656 13.36488,26.52979 l 7.5953,-2.67184 -2.65391,21.07622 -15.26862,-14.76886 7.49605,-2.63773 c -4.31864,-10.99309 -8.65428,-19.59917 -12.99297,-25.80945 -6.40479,-9.16764 -16.82624,-18.85319 -31.26459,-29.02954 z"
       transform="rotate(51,479.6038,335.05134)"
       fill="#659ef6"
       fill-rule="nonzero" />
    <path
       id="Path-Copy-2"
       d="m 269.54846,415.90402 c 14.69799,10.78508 25.36123,21.10262 31.98823,30.97815 4.58065,6.82606 9.10705,16.23453 13.59363,28.23539 l 7.62611,-2.56917 -2.93571,21.03881 -15.06962,-14.97185 7.53471,-2.53939 c -4.39974,-11.75469 -8.81792,-20.93204 -13.24022,-27.52213 -6.40836,-9.54973 -16.83184,-19.63528 -31.27192,-30.2311 z"
       transform="rotate(128,294.16107,455.11338)"
       fill="#659ef6"
       fill-rule="nonzero" />
    <path
       id="Path-Copy-3"
       d="m 110.80438,303.03064 c 10.39588,9.95357 17.93918,19.47715 22.62368,28.5859 3.05876,5.94759 6.08154,14.01966 9.07891,24.22757 l 7.78112,-2.02927 -4.39483,20.78306 -13.98955,-15.9857 7.69919,-2.00998 c -2.93968,-9.99875 -5.89074,-17.8737 -8.8427,-23.61363 -4.51694,-8.78293 -11.85838,-18.05166 -22.03054,-27.79103 z"
       transform="rotate(-161,127.76702,339.1141)"
       fill="#659ef6"
       fill-rule="nonzero" />
    <path
       id="Path-Copy-4"
       d="m 135.80438,140.03064 c 10.39588,9.95357 17.93918,19.47715 22.62368,28.5859 3.05876,5.94759 6.08154,14.01966 9.07891,24.22757 l 7.78112,-2.02927 -4.39483,20.78306 -13.98955,-15.9857 7.69919,-2.00998 c -2.93968,-9.99875 -5.89074,-17.87371 -8.8427,-23.61363 -4.51694,-8.78293 -11.85838,-18.05166 -22.03054,-27.79103 z"
       transform="rotate(-113,152.76702,176.1141)"
       fill="#659ef6"
       fill-rule="nonzero" />
  </g>
</svg>
